<svg width="32" height="32" fill="none" xmlns="http://www.w3.org/2000/svg"><path d="M3.647 1.76l.907-.907.906.906-.906.907-.907-.907zm2.347 4.168l1.449-1.45 1.449 1.45-1.449 1.448-1.449-1.448zm16.756-.436l.906-1.013.907 1.013-.907 1.013-.906-1.013zm1.813-4.159L25.895 0l1.333 1.333-1.333 1.333-1.332-1.333z" fill="#F8D33A"/><path d="M5.413 12.638H26.58v14.448H5.413V12.638z" fill="#F0B90B"/><path d="M5.413 12.638H26.58v2.233H5.413v-2.233z" fill="#C2970C"/><path d="M14.055 12.638h3.884v14.448h-3.884V12.638z" fill="#F8D33A"/><path d="M14.055 12.638h3.884v2.233h-3.884v-2.233z" fill="#C9AC32"/><path d="M2.985 9.24h26.022v3.69H2.985V9.24z" fill="#F8D33A"/><path d="M14.055 9.24h3.884v3.69h-3.884V9.24z" fill="#FCEA9C"/><path d="M15.008 3.096h1.942v2.996l2.119-2.12 1.373 1.374-2.118 2.119h2.996v1.941l-10.68.002V7.466h2.996l-2.119-2.119 1.373-1.373 2.118 2.118V3.096z" fill="#F0B90B"/></svg>